<mxfile host="app.diagrams.net" modified="2023-05-24T18:32:04.932Z" agent="Mozilla/5.0 (Windows NT 10.0; Win64; x64; rv:109.0) Gecko/20100101 Firefox/113.0" etag="WxlQVbkZxaKxLul0okdZ" version="21.3.3" type="device">
  <diagram id="R2lEEEUBdFMjLlhIrx00" name="Page-1">
    <mxGraphModel dx="2835" dy="1917" grid="0" gridSize="10" guides="1" tooltips="1" connect="1" arrows="1" fold="1" page="1" pageScale="1" pageWidth="850" pageHeight="1100" math="0" shadow="0" extFonts="Permanent Marker^https://fonts.googleapis.com/css?family=Permanent+Marker">
      <root>
        <mxCell id="0" />
        <mxCell id="1" parent="0" />
        <mxCell id="bjWsxFxnOVN5gNTxH48k-28" value="admin" style="swimlane;childLayout=stackLayout;horizontal=1;startSize=50;horizontalStack=0;rounded=1;fontSize=14;fontStyle=0;strokeWidth=2;resizeParent=0;resizeLast=1;shadow=0;dashed=0;align=center;arcSize=4;whiteSpace=wrap;html=1;" vertex="1" parent="1">
          <mxGeometry x="740" y="110" width="160" height="80" as="geometry" />
        </mxCell>
        <mxCell id="bjWsxFxnOVN5gNTxH48k-29" value="&lt;div&gt;&lt;u&gt;user_id&lt;/u&gt;&lt;/div&gt;" style="align=left;strokeColor=none;fillColor=none;spacingLeft=4;fontSize=12;verticalAlign=top;resizable=0;rotatable=0;part=1;html=1;" vertex="1" parent="bjWsxFxnOVN5gNTxH48k-28">
          <mxGeometry y="50" width="160" height="30" as="geometry" />
        </mxCell>
        <mxCell id="bjWsxFxnOVN5gNTxH48k-30" style="edgeStyle=orthogonalEdgeStyle;rounded=0;orthogonalLoop=1;jettySize=auto;html=1;exitX=0.5;exitY=1;exitDx=0;exitDy=0;" edge="1" parent="bjWsxFxnOVN5gNTxH48k-28" source="bjWsxFxnOVN5gNTxH48k-29" target="bjWsxFxnOVN5gNTxH48k-29">
          <mxGeometry relative="1" as="geometry" />
        </mxCell>
        <mxCell id="bjWsxFxnOVN5gNTxH48k-34" value="book" style="swimlane;childLayout=stackLayout;horizontal=1;startSize=50;horizontalStack=0;rounded=1;fontSize=14;fontStyle=0;strokeWidth=2;resizeParent=0;resizeLast=1;shadow=0;dashed=0;align=center;arcSize=4;whiteSpace=wrap;html=1;" vertex="1" parent="1">
          <mxGeometry x="-150" y="430" width="163" height="261" as="geometry" />
        </mxCell>
        <mxCell id="bjWsxFxnOVN5gNTxH48k-35" value="&lt;div&gt;&lt;u&gt;book_id&lt;/u&gt;&lt;/div&gt;&lt;div&gt;isbn&lt;/div&gt;&lt;div&gt;title&lt;/div&gt;&lt;div&gt;publisher&lt;/div&gt;&lt;div&gt;pages&lt;/div&gt;&lt;div&gt;summary&lt;/div&gt;&lt;div&gt;available_copies&lt;/div&gt;&lt;div&gt;cover&lt;/div&gt;&lt;div&gt;language&lt;br&gt;&lt;/div&gt;&lt;div&gt;inventory&lt;/div&gt;&lt;div&gt;{category}&lt;/div&gt;&lt;div&gt;{author}&lt;/div&gt;&lt;div&gt;{keyword}&lt;/div&gt;&lt;div&gt;{copy}&lt;br&gt;&lt;/div&gt;&lt;div&gt;&lt;br&gt;&lt;/div&gt;" style="align=left;strokeColor=none;fillColor=none;spacingLeft=4;fontSize=12;verticalAlign=top;resizable=0;rotatable=0;part=1;html=1;" vertex="1" parent="bjWsxFxnOVN5gNTxH48k-34">
          <mxGeometry y="50" width="163" height="211" as="geometry" />
        </mxCell>
        <mxCell id="bjWsxFxnOVN5gNTxH48k-37" value="operator" style="swimlane;childLayout=stackLayout;horizontal=1;startSize=50;horizontalStack=0;rounded=1;fontSize=14;fontStyle=0;strokeWidth=2;resizeParent=0;resizeLast=1;shadow=0;dashed=0;align=center;arcSize=4;whiteSpace=wrap;html=1;" vertex="1" parent="1">
          <mxGeometry x="740" y="220" width="160" height="80" as="geometry" />
        </mxCell>
        <mxCell id="bjWsxFxnOVN5gNTxH48k-38" value="&lt;div&gt;&lt;u&gt;user_id&lt;/u&gt;&lt;/div&gt;" style="align=left;strokeColor=none;fillColor=none;spacingLeft=4;fontSize=12;verticalAlign=top;resizable=0;rotatable=0;part=1;html=1;" vertex="1" parent="bjWsxFxnOVN5gNTxH48k-37">
          <mxGeometry y="50" width="160" height="30" as="geometry" />
        </mxCell>
        <mxCell id="bjWsxFxnOVN5gNTxH48k-39" style="edgeStyle=orthogonalEdgeStyle;rounded=0;orthogonalLoop=1;jettySize=auto;html=1;exitX=0.5;exitY=1;exitDx=0;exitDy=0;" edge="1" parent="bjWsxFxnOVN5gNTxH48k-37" source="bjWsxFxnOVN5gNTxH48k-38" target="bjWsxFxnOVN5gNTxH48k-38">
          <mxGeometry relative="1" as="geometry" />
        </mxCell>
        <mxCell id="bjWsxFxnOVN5gNTxH48k-40" value="student" style="swimlane;childLayout=stackLayout;horizontal=1;startSize=50;horizontalStack=0;rounded=1;fontSize=14;fontStyle=0;strokeWidth=2;resizeParent=0;resizeLast=1;shadow=0;dashed=0;align=center;arcSize=4;whiteSpace=wrap;html=1;" vertex="1" parent="1">
          <mxGeometry x="740" y="330" width="160" height="80" as="geometry" />
        </mxCell>
        <mxCell id="bjWsxFxnOVN5gNTxH48k-41" value="&lt;div&gt;&lt;u&gt;user_id&lt;/u&gt;&lt;/div&gt;" style="align=left;strokeColor=none;fillColor=none;spacingLeft=4;fontSize=12;verticalAlign=top;resizable=0;rotatable=0;part=1;html=1;" vertex="1" parent="bjWsxFxnOVN5gNTxH48k-40">
          <mxGeometry y="50" width="160" height="30" as="geometry" />
        </mxCell>
        <mxCell id="bjWsxFxnOVN5gNTxH48k-42" style="edgeStyle=orthogonalEdgeStyle;rounded=0;orthogonalLoop=1;jettySize=auto;html=1;exitX=0.5;exitY=1;exitDx=0;exitDy=0;" edge="1" parent="bjWsxFxnOVN5gNTxH48k-40" source="bjWsxFxnOVN5gNTxH48k-41" target="bjWsxFxnOVN5gNTxH48k-41">
          <mxGeometry relative="1" as="geometry" />
        </mxCell>
        <mxCell id="bjWsxFxnOVN5gNTxH48k-43" value="teacher" style="swimlane;childLayout=stackLayout;horizontal=1;startSize=50;horizontalStack=0;rounded=1;fontSize=14;fontStyle=0;strokeWidth=2;resizeParent=0;resizeLast=1;shadow=0;dashed=0;align=center;arcSize=4;whiteSpace=wrap;html=1;" vertex="1" parent="1">
          <mxGeometry x="740" y="440" width="160" height="80" as="geometry" />
        </mxCell>
        <mxCell id="bjWsxFxnOVN5gNTxH48k-44" value="&lt;div&gt;&lt;u&gt;user_id&lt;/u&gt;&lt;/div&gt;" style="align=left;strokeColor=none;fillColor=none;spacingLeft=4;fontSize=12;verticalAlign=top;resizable=0;rotatable=0;part=1;html=1;" vertex="1" parent="bjWsxFxnOVN5gNTxH48k-43">
          <mxGeometry y="50" width="160" height="30" as="geometry" />
        </mxCell>
        <mxCell id="bjWsxFxnOVN5gNTxH48k-45" style="edgeStyle=orthogonalEdgeStyle;rounded=0;orthogonalLoop=1;jettySize=auto;html=1;exitX=0.5;exitY=1;exitDx=0;exitDy=0;" edge="1" parent="bjWsxFxnOVN5gNTxH48k-43" source="bjWsxFxnOVN5gNTxH48k-44" target="bjWsxFxnOVN5gNTxH48k-44">
          <mxGeometry relative="1" as="geometry" />
        </mxCell>
        <mxCell id="bjWsxFxnOVN5gNTxH48k-55" value="borrowing" style="swimlane;childLayout=stackLayout;horizontal=1;startSize=50;horizontalStack=0;rounded=1;fontSize=14;fontStyle=0;strokeWidth=2;resizeParent=0;resizeLast=1;shadow=0;dashed=0;align=center;arcSize=4;whiteSpace=wrap;html=1;" vertex="1" parent="1">
          <mxGeometry x="310" y="710" width="160" height="150" as="geometry" />
        </mxCell>
        <mxCell id="bjWsxFxnOVN5gNTxH48k-56" value="&lt;div&gt;&lt;u&gt;borrowing_id&lt;/u&gt;&lt;/div&gt;&lt;div&gt;copy_id&lt;/div&gt;&lt;div&gt;user_id&lt;/div&gt;&lt;div&gt;borrow_data&lt;/div&gt;&lt;div&gt;return_date&lt;/div&gt;&lt;div&gt;status&lt;br&gt;&lt;/div&gt;" style="align=left;strokeColor=none;fillColor=none;spacingLeft=4;fontSize=12;verticalAlign=top;resizable=0;rotatable=0;part=1;html=1;" vertex="1" parent="bjWsxFxnOVN5gNTxH48k-55">
          <mxGeometry y="50" width="160" height="100" as="geometry" />
        </mxCell>
        <mxCell id="bjWsxFxnOVN5gNTxH48k-63" value="reservation" style="swimlane;childLayout=stackLayout;horizontal=1;startSize=50;horizontalStack=0;rounded=1;fontSize=14;fontStyle=0;strokeWidth=2;resizeParent=0;resizeLast=1;shadow=0;dashed=0;align=center;arcSize=4;whiteSpace=wrap;html=1;" vertex="1" parent="1">
          <mxGeometry x="500" y="710" width="160" height="130" as="geometry" />
        </mxCell>
        <mxCell id="bjWsxFxnOVN5gNTxH48k-64" value="&lt;div&gt;&lt;u&gt;reservation_id&lt;/u&gt;&lt;/div&gt;&lt;div&gt;book_id&lt;/div&gt;&lt;div&gt;user_id&lt;/div&gt;&lt;div&gt;request_date&lt;/div&gt;&lt;div&gt;status&lt;br&gt;&lt;/div&gt;" style="align=left;strokeColor=none;fillColor=none;spacingLeft=4;fontSize=12;verticalAlign=top;resizable=0;rotatable=0;part=1;html=1;" vertex="1" parent="bjWsxFxnOVN5gNTxH48k-63">
          <mxGeometry y="50" width="160" height="80" as="geometry" />
        </mxCell>
        <mxCell id="bjWsxFxnOVN5gNTxH48k-65" value="review" style="swimlane;childLayout=stackLayout;horizontal=1;startSize=50;horizontalStack=0;rounded=1;fontSize=14;fontStyle=0;strokeWidth=2;resizeParent=0;resizeLast=1;shadow=0;dashed=0;align=center;arcSize=4;whiteSpace=wrap;html=1;" vertex="1" parent="1">
          <mxGeometry x="120" y="710" width="160" height="150" as="geometry" />
        </mxCell>
        <mxCell id="bjWsxFxnOVN5gNTxH48k-66" value="&lt;div&gt;&lt;u&gt;review_id&lt;/u&gt;&lt;/div&gt;&lt;div&gt;rating&lt;/div&gt;&lt;div&gt;review_text&lt;/div&gt;&lt;div&gt;book_isbn&lt;/div&gt;&lt;div&gt;user_id&lt;/div&gt;&lt;div&gt;status&lt;/div&gt;" style="align=left;strokeColor=none;fillColor=none;spacingLeft=4;fontSize=12;verticalAlign=top;resizable=0;rotatable=0;part=1;html=1;" vertex="1" parent="bjWsxFxnOVN5gNTxH48k-65">
          <mxGeometry y="50" width="160" height="100" as="geometry" />
        </mxCell>
        <mxCell id="bjWsxFxnOVN5gNTxH48k-67" value="school_unit" style="swimlane;childLayout=stackLayout;horizontal=1;startSize=50;horizontalStack=0;rounded=1;fontSize=14;fontStyle=0;strokeWidth=2;resizeParent=0;resizeLast=1;shadow=0;dashed=0;align=center;arcSize=4;whiteSpace=wrap;html=1;" vertex="1" parent="1">
          <mxGeometry x="-150" y="100" width="160" height="170" as="geometry" />
        </mxCell>
        <mxCell id="bjWsxFxnOVN5gNTxH48k-68" value="&lt;div&gt;&lt;u&gt;school_id&lt;/u&gt;&lt;/div&gt;&lt;div&gt;school_name&lt;/div&gt;&lt;div&gt;address&lt;/div&gt;&lt;div&gt;phone&lt;/div&gt;&lt;div&gt;email&lt;/div&gt;&lt;div&gt;principal_name&lt;/div&gt;&lt;div&gt;operator_name&lt;br&gt;&lt;/div&gt;" style="align=left;strokeColor=none;fillColor=none;spacingLeft=4;fontSize=12;verticalAlign=top;resizable=0;rotatable=0;part=1;html=1;" vertex="1" parent="bjWsxFxnOVN5gNTxH48k-67">
          <mxGeometry y="50" width="160" height="120" as="geometry" />
        </mxCell>
        <mxCell id="bjWsxFxnOVN5gNTxH48k-70" value="user" style="swimlane;childLayout=stackLayout;horizontal=1;startSize=50;horizontalStack=0;rounded=1;fontSize=14;fontStyle=0;strokeWidth=2;resizeParent=0;resizeLast=1;shadow=0;dashed=0;align=center;arcSize=4;whiteSpace=wrap;html=1;" vertex="1" parent="1">
          <mxGeometry x="310" y="221" width="160" height="219" as="geometry" />
        </mxCell>
        <mxCell id="bjWsxFxnOVN5gNTxH48k-71" value="&lt;div&gt;&lt;u&gt;user_id&lt;/u&gt;&lt;/div&gt;&lt;div&gt;username&lt;/div&gt;&lt;div&gt;password&lt;/div&gt;&lt;div&gt;name&lt;/div&gt;&lt;div&gt;surname&lt;/div&gt;&lt;div&gt;email&lt;/div&gt;&lt;div&gt;copies_borrowed&lt;/div&gt;&lt;div&gt;copies_reserved&lt;/div&gt;&lt;div&gt;max_copies_borrowed&lt;div&gt;max_copies_reserved&lt;/div&gt;&lt;div&gt;&lt;b&gt;type&lt;/b&gt;&lt;br&gt;&lt;/div&gt;&lt;/div&gt;" style="align=left;strokeColor=none;fillColor=none;spacingLeft=4;fontSize=12;verticalAlign=top;resizable=0;rotatable=0;part=1;html=1;" vertex="1" parent="bjWsxFxnOVN5gNTxH48k-70">
          <mxGeometry y="50" width="160" height="169" as="geometry" />
        </mxCell>
        <mxCell id="bjWsxFxnOVN5gNTxH48k-73" value="" style="triangle;whiteSpace=wrap;html=1;direction=west;" vertex="1" parent="1">
          <mxGeometry x="470" y="290" width="20" height="20" as="geometry" />
        </mxCell>
        <mxCell id="bjWsxFxnOVN5gNTxH48k-75" value="" style="endArrow=none;html=1;rounded=0;exitX=0;exitY=0.5;exitDx=0;exitDy=0;" edge="1" parent="1" source="bjWsxFxnOVN5gNTxH48k-73">
          <mxGeometry width="50" height="50" relative="1" as="geometry">
            <mxPoint x="730" y="340" as="sourcePoint" />
            <mxPoint x="700" y="300" as="targetPoint" />
          </mxGeometry>
        </mxCell>
        <mxCell id="bjWsxFxnOVN5gNTxH48k-76" value="" style="endArrow=none;html=1;rounded=0;entryX=0;entryY=0.5;entryDx=0;entryDy=0;" edge="1" parent="1" target="bjWsxFxnOVN5gNTxH48k-37">
          <mxGeometry width="50" height="50" relative="1" as="geometry">
            <mxPoint x="700" y="260" as="sourcePoint" />
            <mxPoint x="780" y="290" as="targetPoint" />
          </mxGeometry>
        </mxCell>
        <mxCell id="bjWsxFxnOVN5gNTxH48k-77" value="" style="endArrow=none;html=1;rounded=0;entryX=0;entryY=0.5;entryDx=0;entryDy=0;" edge="1" parent="1">
          <mxGeometry width="50" height="50" relative="1" as="geometry">
            <mxPoint x="700" y="149.78" as="sourcePoint" />
            <mxPoint x="740" y="149.78" as="targetPoint" />
          </mxGeometry>
        </mxCell>
        <mxCell id="bjWsxFxnOVN5gNTxH48k-78" value="" style="endArrow=none;html=1;rounded=0;entryX=0;entryY=0.5;entryDx=0;entryDy=0;" edge="1" parent="1">
          <mxGeometry width="50" height="50" relative="1" as="geometry">
            <mxPoint x="700" y="369.78" as="sourcePoint" />
            <mxPoint x="740" y="369.78" as="targetPoint" />
          </mxGeometry>
        </mxCell>
        <mxCell id="bjWsxFxnOVN5gNTxH48k-79" value="" style="endArrow=none;html=1;rounded=0;entryX=0;entryY=0.5;entryDx=0;entryDy=0;" edge="1" parent="1">
          <mxGeometry width="50" height="50" relative="1" as="geometry">
            <mxPoint x="700" y="479.78" as="sourcePoint" />
            <mxPoint x="740" y="479.78" as="targetPoint" />
          </mxGeometry>
        </mxCell>
        <mxCell id="bjWsxFxnOVN5gNTxH48k-80" value="" style="endArrow=none;html=1;rounded=0;" edge="1" parent="1">
          <mxGeometry width="50" height="50" relative="1" as="geometry">
            <mxPoint x="700" y="480" as="sourcePoint" />
            <mxPoint x="700" y="150" as="targetPoint" />
          </mxGeometry>
        </mxCell>
        <mxCell id="bjWsxFxnOVN5gNTxH48k-81" value="&lt;div&gt;approves&lt;/div&gt;&lt;div&gt;/registers&lt;/div&gt;" style="shape=rhombus;perimeter=rhombusPerimeter;whiteSpace=wrap;html=1;align=center;" vertex="1" parent="1">
          <mxGeometry x="940" y="170" width="120" height="60" as="geometry" />
        </mxCell>
        <mxCell id="bjWsxFxnOVN5gNTxH48k-82" value="&lt;div&gt;approves&lt;/div&gt;&lt;div&gt;/registers&lt;/div&gt;" style="shape=rhombus;perimeter=rhombusPerimeter;whiteSpace=wrap;html=1;align=center;" vertex="1" parent="1">
          <mxGeometry x="990" y="365" width="120" height="60" as="geometry" />
        </mxCell>
        <mxCell id="bjWsxFxnOVN5gNTxH48k-84" value="" style="endArrow=classic;html=1;rounded=0;entryX=1;entryY=0.5;entryDx=0;entryDy=0;exitX=0.5;exitY=0;exitDx=0;exitDy=0;" edge="1" parent="1" source="bjWsxFxnOVN5gNTxH48k-81" target="bjWsxFxnOVN5gNTxH48k-28">
          <mxGeometry width="50" height="50" relative="1" as="geometry">
            <mxPoint x="900" y="310" as="sourcePoint" />
            <mxPoint x="950" y="260" as="targetPoint" />
            <Array as="points">
              <mxPoint x="1000" y="150" />
            </Array>
          </mxGeometry>
        </mxCell>
        <mxCell id="bjWsxFxnOVN5gNTxH48k-85" value="" style="shape=link;html=1;rounded=0;entryX=0.5;entryY=1;entryDx=0;entryDy=0;exitX=1;exitY=0.5;exitDx=0;exitDy=0;" edge="1" parent="1" source="bjWsxFxnOVN5gNTxH48k-37" target="bjWsxFxnOVN5gNTxH48k-81">
          <mxGeometry width="100" relative="1" as="geometry">
            <mxPoint x="880" y="280" as="sourcePoint" />
            <mxPoint x="980" y="280" as="targetPoint" />
            <Array as="points">
              <mxPoint x="1000" y="260" />
            </Array>
          </mxGeometry>
        </mxCell>
        <mxCell id="bjWsxFxnOVN5gNTxH48k-86" value="" style="endArrow=classic;html=1;rounded=0;exitX=0.5;exitY=0;exitDx=0;exitDy=0;" edge="1" parent="1" source="bjWsxFxnOVN5gNTxH48k-82">
          <mxGeometry width="50" height="50" relative="1" as="geometry">
            <mxPoint x="900" y="380" as="sourcePoint" />
            <mxPoint x="900" y="290" as="targetPoint" />
            <Array as="points">
              <mxPoint x="1050" y="290" />
              <mxPoint x="910" y="290" />
            </Array>
          </mxGeometry>
        </mxCell>
        <mxCell id="bjWsxFxnOVN5gNTxH48k-87" value="" style="shape=link;html=1;rounded=0;exitX=1;exitY=0.5;exitDx=0;exitDy=0;entryX=0;entryY=0.5;entryDx=0;entryDy=0;" edge="1" parent="1" source="bjWsxFxnOVN5gNTxH48k-40" target="bjWsxFxnOVN5gNTxH48k-82">
          <mxGeometry width="100" relative="1" as="geometry">
            <mxPoint x="880" y="420" as="sourcePoint" />
            <mxPoint x="980" y="420" as="targetPoint" />
            <Array as="points">
              <mxPoint x="980" y="370" />
              <mxPoint x="980" y="395" />
            </Array>
          </mxGeometry>
        </mxCell>
        <mxCell id="bjWsxFxnOVN5gNTxH48k-88" value="" style="shape=link;html=1;rounded=0;exitX=1;exitY=0.5;exitDx=0;exitDy=0;" edge="1" parent="1" source="bjWsxFxnOVN5gNTxH48k-93">
          <mxGeometry width="100" relative="1" as="geometry">
            <mxPoint x="880" y="420" as="sourcePoint" />
            <mxPoint x="980" y="390" as="targetPoint" />
            <Array as="points">
              <mxPoint x="980" y="600" />
            </Array>
          </mxGeometry>
        </mxCell>
        <mxCell id="bjWsxFxnOVN5gNTxH48k-91" value="" style="edgeStyle=orthogonalEdgeStyle;rounded=0;orthogonalLoop=1;jettySize=auto;html=1;entryX=0.5;entryY=0;entryDx=0;entryDy=0;" edge="1" parent="1" source="bjWsxFxnOVN5gNTxH48k-89" target="bjWsxFxnOVN5gNTxH48k-28">
          <mxGeometry relative="1" as="geometry">
            <mxPoint x="600" y="25" as="targetPoint" />
          </mxGeometry>
        </mxCell>
        <mxCell id="bjWsxFxnOVN5gNTxH48k-89" value="&lt;div&gt;approves&lt;/div&gt;&lt;div&gt;/registers&lt;/div&gt;" style="shape=rhombus;perimeter=rhombusPerimeter;whiteSpace=wrap;html=1;align=center;" vertex="1" parent="1">
          <mxGeometry x="380" y="-5" width="120" height="60" as="geometry" />
        </mxCell>
        <mxCell id="bjWsxFxnOVN5gNTxH48k-93" value="&lt;div&gt;action&lt;/div&gt;" style="swimlane;childLayout=stackLayout;horizontal=1;startSize=50;horizontalStack=0;rounded=1;fontSize=14;fontStyle=0;strokeWidth=2;resizeParent=0;resizeLast=1;shadow=0;dashed=0;align=center;arcSize=4;whiteSpace=wrap;html=1;" vertex="1" parent="1">
          <mxGeometry x="310" y="560" width="160" height="80" as="geometry" />
        </mxCell>
        <mxCell id="bjWsxFxnOVN5gNTxH48k-94" value="&lt;b&gt;type&lt;/b&gt;" style="align=left;strokeColor=none;fillColor=none;spacingLeft=4;fontSize=12;verticalAlign=top;resizable=0;rotatable=0;part=1;html=1;" vertex="1" parent="bjWsxFxnOVN5gNTxH48k-93">
          <mxGeometry y="50" width="160" height="30" as="geometry" />
        </mxCell>
        <mxCell id="bjWsxFxnOVN5gNTxH48k-95" value="" style="triangle;whiteSpace=wrap;html=1;direction=west;fillColor=#000000;" vertex="1" parent="1">
          <mxGeometry x="10" y="595" width="10" height="10" as="geometry" />
        </mxCell>
        <mxCell id="bjWsxFxnOVN5gNTxH48k-96" value="" style="endArrow=none;html=1;rounded=0;entryX=0.5;entryY=0;entryDx=0;entryDy=0;" edge="1" parent="1" target="bjWsxFxnOVN5gNTxH48k-65">
          <mxGeometry width="50" height="50" relative="1" as="geometry">
            <mxPoint x="200" y="690" as="sourcePoint" />
            <mxPoint x="320" y="670" as="targetPoint" />
          </mxGeometry>
        </mxCell>
        <mxCell id="bjWsxFxnOVN5gNTxH48k-97" value="" style="endArrow=none;html=1;rounded=0;entryX=0.5;entryY=0;entryDx=0;entryDy=0;" edge="1" parent="1">
          <mxGeometry width="50" height="50" relative="1" as="geometry">
            <mxPoint x="389.8" y="690" as="sourcePoint" />
            <mxPoint x="389.8" y="710" as="targetPoint" />
          </mxGeometry>
        </mxCell>
        <mxCell id="bjWsxFxnOVN5gNTxH48k-98" value="" style="endArrow=none;html=1;rounded=0;entryX=0.5;entryY=0;entryDx=0;entryDy=0;" edge="1" parent="1">
          <mxGeometry width="50" height="50" relative="1" as="geometry">
            <mxPoint x="579.8" y="690" as="sourcePoint" />
            <mxPoint x="579.8" y="710" as="targetPoint" />
          </mxGeometry>
        </mxCell>
        <mxCell id="bjWsxFxnOVN5gNTxH48k-99" value="" style="endArrow=none;html=1;rounded=0;" edge="1" parent="1">
          <mxGeometry width="50" height="50" relative="1" as="geometry">
            <mxPoint x="200" y="690" as="sourcePoint" />
            <mxPoint x="580" y="690" as="targetPoint" />
          </mxGeometry>
        </mxCell>
        <mxCell id="bjWsxFxnOVN5gNTxH48k-100" value="" style="endArrow=none;html=1;rounded=0;exitX=0;exitY=0.5;exitDx=0;exitDy=0;" edge="1" parent="1" source="bjWsxFxnOVN5gNTxH48k-116">
          <mxGeometry width="50" height="50" relative="1" as="geometry">
            <mxPoint x="389.8" y="660" as="sourcePoint" />
            <mxPoint x="390" y="690" as="targetPoint" />
          </mxGeometry>
        </mxCell>
        <mxCell id="bjWsxFxnOVN5gNTxH48k-104" value="" style="edgeStyle=orthogonalEdgeStyle;rounded=0;orthogonalLoop=1;jettySize=auto;html=1;" edge="1" parent="1" source="bjWsxFxnOVN5gNTxH48k-101" target="bjWsxFxnOVN5gNTxH48k-71">
          <mxGeometry relative="1" as="geometry" />
        </mxCell>
        <mxCell id="bjWsxFxnOVN5gNTxH48k-101" value="&lt;div&gt;performs&lt;/div&gt;" style="shape=rhombus;perimeter=rhombusPerimeter;whiteSpace=wrap;html=1;align=center;" vertex="1" parent="1">
          <mxGeometry x="330" y="470" width="120" height="60" as="geometry" />
        </mxCell>
        <mxCell id="bjWsxFxnOVN5gNTxH48k-105" value="" style="shape=link;html=1;rounded=0;exitX=0.5;exitY=0;exitDx=0;exitDy=0;entryX=0.5;entryY=1;entryDx=0;entryDy=0;" edge="1" parent="1" source="bjWsxFxnOVN5gNTxH48k-93" target="bjWsxFxnOVN5gNTxH48k-101">
          <mxGeometry width="100" relative="1" as="geometry">
            <mxPoint x="380" y="570" as="sourcePoint" />
            <mxPoint x="480" y="570" as="targetPoint" />
          </mxGeometry>
        </mxCell>
        <mxCell id="bjWsxFxnOVN5gNTxH48k-107" value="" style="shape=link;html=1;rounded=0;exitX=1;exitY=0.5;exitDx=0;exitDy=0;" edge="1" parent="1" source="bjWsxFxnOVN5gNTxH48k-43">
          <mxGeometry width="100" relative="1" as="geometry">
            <mxPoint x="850" y="470" as="sourcePoint" />
            <mxPoint x="980" y="480" as="targetPoint" />
          </mxGeometry>
        </mxCell>
        <mxCell id="bjWsxFxnOVN5gNTxH48k-109" value="" style="shape=link;html=1;rounded=0;exitX=0.5;exitY=0;exitDx=0;exitDy=0;entryX=0;entryY=0.5;entryDx=0;entryDy=0;" edge="1" parent="1" source="bjWsxFxnOVN5gNTxH48k-67" target="bjWsxFxnOVN5gNTxH48k-89">
          <mxGeometry width="100" relative="1" as="geometry">
            <mxPoint x="290" y="280" as="sourcePoint" />
            <mxPoint x="390" y="280" as="targetPoint" />
            <Array as="points">
              <mxPoint x="-70" y="25" />
              <mxPoint x="80" y="25" />
            </Array>
          </mxGeometry>
        </mxCell>
        <mxCell id="bjWsxFxnOVN5gNTxH48k-111" value="" style="edgeStyle=orthogonalEdgeStyle;rounded=0;orthogonalLoop=1;jettySize=auto;html=1;" edge="1" parent="1" source="bjWsxFxnOVN5gNTxH48k-110" target="bjWsxFxnOVN5gNTxH48k-68">
          <mxGeometry relative="1" as="geometry" />
        </mxCell>
        <mxCell id="bjWsxFxnOVN5gNTxH48k-110" value="&lt;div&gt;owns&lt;/div&gt;" style="shape=rhombus;perimeter=rhombusPerimeter;whiteSpace=wrap;html=1;align=center;" vertex="1" parent="1">
          <mxGeometry x="-130" y="320" width="120" height="60" as="geometry" />
        </mxCell>
        <mxCell id="bjWsxFxnOVN5gNTxH48k-112" value="" style="shape=link;html=1;rounded=0;exitX=0.5;exitY=1;exitDx=0;exitDy=0;entryX=0.5;entryY=0;entryDx=0;entryDy=0;" edge="1" parent="1" source="bjWsxFxnOVN5gNTxH48k-110" target="bjWsxFxnOVN5gNTxH48k-34">
          <mxGeometry width="100" relative="1" as="geometry">
            <mxPoint x="130" y="380" as="sourcePoint" />
            <mxPoint x="230" y="380" as="targetPoint" />
          </mxGeometry>
        </mxCell>
        <mxCell id="bjWsxFxnOVN5gNTxH48k-113" value="is performed to" style="shape=rhombus;perimeter=rhombusPerimeter;whiteSpace=wrap;html=1;align=center;" vertex="1" parent="1">
          <mxGeometry x="90" y="570" width="120" height="60" as="geometry" />
        </mxCell>
        <mxCell id="bjWsxFxnOVN5gNTxH48k-114" value="" style="shape=link;html=1;rounded=0;exitX=1;exitY=0.5;exitDx=0;exitDy=0;entryX=0;entryY=0.5;entryDx=0;entryDy=0;" edge="1" parent="1" source="bjWsxFxnOVN5gNTxH48k-113" target="bjWsxFxnOVN5gNTxH48k-93">
          <mxGeometry width="100" relative="1" as="geometry">
            <mxPoint x="110" y="660" as="sourcePoint" />
            <mxPoint x="210" y="660" as="targetPoint" />
          </mxGeometry>
        </mxCell>
        <mxCell id="bjWsxFxnOVN5gNTxH48k-115" value="" style="shape=link;html=1;rounded=0;entryX=0;entryY=0.5;entryDx=0;entryDy=0;exitX=0;exitY=0.5;exitDx=0;exitDy=0;" edge="1" parent="1" source="bjWsxFxnOVN5gNTxH48k-95">
          <mxGeometry width="100" relative="1" as="geometry">
            <mxPoint x="10" y="600" as="sourcePoint" />
            <mxPoint x="90" y="599.71" as="targetPoint" />
          </mxGeometry>
        </mxCell>
        <mxCell id="bjWsxFxnOVN5gNTxH48k-116" value="" style="triangle;whiteSpace=wrap;html=1;direction=north;" vertex="1" parent="1">
          <mxGeometry x="380" y="640" width="20" height="20" as="geometry" />
        </mxCell>
        <mxCell id="bjWsxFxnOVN5gNTxH48k-133" value="" style="shape=link;html=1;rounded=0;exitX=0.5;exitY=1;exitDx=0;exitDy=0;" edge="1" parent="1" source="bjWsxFxnOVN5gNTxH48k-35">
          <mxGeometry width="100" relative="1" as="geometry">
            <mxPoint x="240" y="760" as="sourcePoint" />
            <mxPoint x="980" y="600" as="targetPoint" />
            <Array as="points">
              <mxPoint x="-70" y="890" />
              <mxPoint x="980" y="890" />
            </Array>
          </mxGeometry>
        </mxCell>
      </root>
    </mxGraphModel>
  </diagram>
</mxfile>
